HIERARCHY
ROOT __0
{
	OFFSET 0.0 0.0 0.0
	CHANNELS 0
	JOINT sacroiliac
	{
		OFFSET 0.000000 97.241234 0.000000
		CHANNELS 6 Xposition Yposition Zposition Xrotation Yrotation Zrotation
		JOINT l_hip
		{
			OFFSET 12.659440 0.263405 0.017504
			CHANNELS 6 Xposition Yposition Zposition Xrotation Yrotation Zrotation
			JOINT l_knee
			{
				OFFSET -0.056127 -41.459221 -7.092512
				CHANNELS 6 Xposition Yposition Zposition Xrotation Yrotation Zrotation
				JOINT l_talocrural
				{
					OFFSET -0.451251 -48.935486 -0.909037
					CHANNELS 6 Xposition Yposition Zposition Xrotation Yrotation Zrotation
					JOINT l_metatarsophalangeal_2
					{
						OFFSET 1.893436 -2.741843 10.253989
						CHANNELS 6 Xposition Yposition Zposition Xrotation Yrotation Zrotation
						JOINT l_tarsal_distal_interphalangeal_2
						{
							OFFSET 1.459259 -1.239549 6.720149
							CHANNELS 6 Xposition Yposition Zposition Xrotation Yrotation Zrotation
							End Site
							{
								OFFSET 0.550887 6.929561 0.709964
							}
						}
					}
				}
			}
		}
		JOINT r_hip
		{
			OFFSET -10.877525 0.542419 0.118806
			CHANNELS 6 Xposition Yposition Zposition Xrotation Yrotation Zrotation
			JOINT r_knee
			{
				OFFSET -2.733018 -40.102680 -3.116480
				CHANNELS 6 Xposition Yposition Zposition Xrotation Yrotation Zrotation
				JOINT r_talocrural
				{
					OFFSET -2.072458 -48.341621 -2.002305
					CHANNELS 6 Xposition Yposition Zposition Xrotation Yrotation Zrotation
					JOINT r_metatarsophalangeal_2
					{
						OFFSET -1.708606 -5.120190 8.172795
						CHANNELS 6 Xposition Yposition Zposition Xrotation Yrotation Zrotation
						JOINT r_tarsal_distal_interphalangeal_2
						{
							OFFSET -1.297718 -1.254819 10.832584
							CHANNELS 6 Xposition Yposition Zposition Xrotation Yrotation Zrotation
							End Site
							{
								OFFSET -0.044250 10.971019 -0.488195
							}
						}
					}
				}
			}
		}
	}
	JOINT vl5
	{
		OFFSET 0.133384 107.967499 -0.574449
		CHANNELS 6 Xposition Yposition Zposition Xrotation Yrotation Zrotation
		JOINT vl3
		{
			OFFSET 0.004485 8.902283 -0.497653
			CHANNELS 6 Xposition Yposition Zposition Xrotation Yrotation Zrotation
			JOINT vt12
			{
				OFFSET 0.060136 8.839600 -0.493494
				CHANNELS 6 Xposition Yposition Zposition Xrotation Yrotation Zrotation
				JOINT vt9
				{
					OFFSET 0.062682 8.848557 -0.076898
					CHANNELS 6 Xposition Yposition Zposition Xrotation Yrotation Zrotation
					JOINT vt4
					{
						OFFSET -0.096807 9.138901 -1.197561
						CHANNELS 6 Xposition Yposition Zposition Xrotation Yrotation Zrotation
						JOINT vc7
						{
							OFFSET -0.124954 11.439865 -2.813923
							CHANNELS 6 Xposition Yposition Zposition Xrotation Yrotation Zrotation
							JOINT vc3
							{
								OFFSET -0.218966 6.882370 0.230860
								CHANNELS 6 Xposition Yposition Zposition Xrotation Yrotation Zrotation
								JOINT skullbase
								{
									OFFSET 0.006264 20.116867 1.298745
									CHANNELS 6 Xposition Yposition Zposition Xrotation Yrotation Zrotation
									End Site
									{
										OFFSET -0.714092 20.144974 0.212928
									}
								}
							}
						}
						JOINT l_sternoclavicular
						{
							OFFSET 9.002885 2.183426 -2.357404
							CHANNELS 6 Xposition Yposition Zposition Xrotation Yrotation Zrotation
							JOINT l_shoulder
							{
								OFFSET 16.979572 -1.196640 0.059308
								CHANNELS 6 Xposition Yposition Zposition Xrotation Yrotation Zrotation
								JOINT l_elbow
								{
									OFFSET 1.919569 -24.215691 -2.683203
									CHANNELS 6 Xposition Yposition Zposition Xrotation Yrotation Zrotation
									JOINT l_radiocarpal
									{
										OFFSET 4.005363 -23.866196 1.746336
										CHANNELS 6 Xposition Yposition Zposition Xrotation Yrotation Zrotation
										JOINT l_carpometacarpal_1
										{
											OFFSET -0.733295 -0.937843 2.556465
											CHANNELS 6 Xposition Yposition Zposition Xrotation Yrotation Zrotation
											JOINT l_metacarpophalangeal_1
											{
												OFFSET -1.623568 -2.654396 1.342728
												CHANNELS 6 Xposition Yposition Zposition Xrotation Yrotation Zrotation
												JOINT l_carpal_interphalangeal_1
												{
													OFFSET -0.159103 -3.764389 0.795186
													CHANNELS 6 Xposition Yposition Zposition Xrotation Yrotation Zrotation
													End Site
													{
														OFFSET -1.383871 3.103577 1.811355
													}
												}
											}
										}
										JOINT l_carpometacarpal_2
										{
											OFFSET 0.220421 -1.855507 1.852472
											CHANNELS 6 Xposition Yposition Zposition Xrotation Yrotation Zrotation
											JOINT l_metacarpophalangeal_2
											{
												OFFSET 1.868755 -5.691109 0.608613
												CHANNELS 6 Xposition Yposition Zposition Xrotation Yrotation Zrotation
												JOINT l_carpal_proximal_interphalangeal_2
												{
													OFFSET 0.668041 -4.187950 -0.509612
													CHANNELS 6 Xposition Yposition Zposition Xrotation Yrotation Zrotation
													JOINT l_carpal_distal_interphalangeal_2
													{
														OFFSET 0.351734 -2.856293 -0.355142
														CHANNELS 6 Xposition Yposition Zposition Xrotation Yrotation Zrotation
														End Site
														{
															OFFSET -0.283314 2.848190 0.464507
														}
													}
												}
											}
										}
										JOINT l_carpometacarpal_3
										{
											OFFSET 0.736202 -1.450027 0.605913
											CHANNELS 6 Xposition Yposition Zposition Xrotation Yrotation Zrotation
											JOINT l_metacarpophalangeal_3
											{
												OFFSET 2.204281 -6.889053 -0.754786
												CHANNELS 6 Xposition Yposition Zposition Xrotation Yrotation Zrotation
												JOINT l_carpal_proximal_interphalangeal_3
												{
													OFFSET 1.305157 -4.174088 -0.457858
													CHANNELS 6 Xposition Yposition Zposition Xrotation Yrotation Zrotation
													JOINT l_carpal_distal_interphalangeal_3
													{
														OFFSET 0.286175 -2.824463 -0.467294
														CHANNELS 6 Xposition Yposition Zposition Xrotation Yrotation Zrotation
														End Site
														{
															OFFSET 0.201748 2.777870 0.721522
														}
													}
												}
											}
										}
										JOINT l_carpometacarpal_4
										{
											OFFSET 1.540028 -1.242729 -1.132456
											CHANNELS 6 Xposition Yposition Zposition Xrotation Yrotation Zrotation
											JOINT l_metacarpophalangeal_4
											{
												OFFSET 1.957336 -5.316887 -1.147082
												CHANNELS 6 Xposition Yposition Zposition Xrotation Yrotation Zrotation
												JOINT l_carpal_proximal_interphalangeal_4
												{
													OFFSET 0.823364 -4.700478 -0.979107
													CHANNELS 6 Xposition Yposition Zposition Xrotation Yrotation Zrotation
													JOINT l_carpal_distal_interphalangeal_4
													{
														OFFSET 0.270664 -2.404503 -0.276408
														CHANNELS 6 Xposition Yposition Zposition Xrotation Yrotation Zrotation
														End Site
														{
															OFFSET 0.257771 2.370453 0.495790
														}
													}
												}
											}
										}
										JOINT l_carpometacarpal_5
										{
											OFFSET 0.804024 -1.054977 -2.769533
											CHANNELS 6 Xposition Yposition Zposition Xrotation Yrotation Zrotation
											JOINT l_metacarpophalangeal_5
											{
												OFFSET 2.351746 -5.248123 -1.593393
												CHANNELS 6 Xposition Yposition Zposition Xrotation Yrotation Zrotation
												JOINT l_carpal_proximal_interphalangeal_5
												{
													OFFSET 0.930412 -3.007706 -0.994926
													CHANNELS 6 Xposition Yposition Zposition Xrotation Yrotation Zrotation
													JOINT l_carpal_distal_interphalangeal_5
													{
														OFFSET 0.348484 -1.584801 -0.524666
														CHANNELS 6 Xposition Yposition Zposition Xrotation Yrotation Zrotation
														End Site
														{
															OFFSET 0.125839 1.681107 0.257608
														}
													}
												}
											}
										}
									}
								}
							}
						}
						JOINT r_sternoclavicular
						{
							OFFSET -9.619539 2.826996 -1.720049
							CHANNELS 6 Xposition Yposition Zposition Xrotation Yrotation Zrotation
							JOINT r_shoulder
							{
								OFFSET -15.998908 0.170959 0.277151
								CHANNELS 6 Xposition Yposition Zposition Xrotation Yrotation Zrotation
								JOINT r_elbow
								{
									OFFSET -1.066515 -23.014351 -3.981280
									CHANNELS 6 Xposition Yposition Zposition Xrotation Yrotation Zrotation
									JOINT r_radiocarpal
									{
										OFFSET -5.432976 -24.873878 2.860100
										CHANNELS 6 Xposition Yposition Zposition Xrotation Yrotation Zrotation
										JOINT r_carpometacarpal_1
										{
											OFFSET 0.888868 -2.774330 2.314270
											CHANNELS 6 Xposition Yposition Zposition Xrotation Yrotation Zrotation
											JOINT r_metacarpophalangeal_1
											{
												OFFSET 1.017183 -3.196999 0.869560
												CHANNELS 6 Xposition Yposition Zposition Xrotation Yrotation Zrotation
												JOINT r_carpal_interphalangeal_1
												{
													OFFSET 0.265917 -4.102295 0.853480
													CHANNELS 6 Xposition Yposition Zposition Xrotation Yrotation Zrotation
													End Site
													{
														OFFSET -0.301241 3.857361 -1.630342
													}
												}
											}
										}
										JOINT r_carpometacarpal_2
										{
											OFFSET -0.338835 -2.827660 1.960050
											CHANNELS 6 Xposition Yposition Zposition Xrotation Yrotation Zrotation
											JOINT r_metacarpophalangeal_2
											{
												OFFSET -2.232975 -7.694664 -0.184952
												CHANNELS 6 Xposition Yposition Zposition Xrotation Yrotation Zrotation
												JOINT r_carpal_proximal_interphalangeal_2
												{
													OFFSET -0.882938 -3.742104 -0.434769
													CHANNELS 6 Xposition Yposition Zposition Xrotation Yrotation Zrotation
													JOINT r_carpal_distal_interphalangeal_2
													{
														OFFSET -0.144009 -2.358276 -0.330715
														CHANNELS 6 Xposition Yposition Zposition Xrotation Yrotation Zrotation
														End Site
														{
															OFFSET 1.001324 2.155998 -0.201548
														}
													}
												}
											}
										}
										JOINT r_carpometacarpal_3
										{
											OFFSET -0.987749 -2.061356 0.636622
											CHANNELS 6 Xposition Yposition Zposition Xrotation Yrotation Zrotation
											JOINT r_metacarpophalangeal_3
											{
												OFFSET -2.321774 -7.881210 -1.327348
												CHANNELS 6 Xposition Yposition Zposition Xrotation Yrotation Zrotation
												JOINT r_carpal_proximal_interphalangeal_3
												{
													OFFSET -0.970024 -4.269577 -0.713563
													CHANNELS 6 Xposition Yposition Zposition Xrotation Yrotation Zrotation
													JOINT r_carpal_distal_interphalangeal_3
													{
														OFFSET -0.698536 -2.891998 -0.524225
														CHANNELS 6 Xposition Yposition Zposition Xrotation Yrotation Zrotation
														End Site
														{
															OFFSET 0.909077 2.878181 0.126771
														}
													}
												}
											}
										}
										JOINT r_carpometacarpal_4
										{
											OFFSET -1.338686 -2.244171 -0.938704
											CHANNELS 6 Xposition Yposition Zposition Xrotation Yrotation Zrotation
											JOINT r_metacarpophalangeal_4
											{
												OFFSET -2.024849 -6.788963 -1.596698
												CHANNELS 6 Xposition Yposition Zposition Xrotation Yrotation Zrotation
												JOINT r_carpal_proximal_interphalangeal_4
												{
													OFFSET -1.144611 -4.162186 -1.217980
													CHANNELS 6 Xposition Yposition Zposition Xrotation Yrotation Zrotation
													JOINT r_carpal_distal_interphalangeal_4
													{
														OFFSET -0.718674 -2.192024 -0.433145
														CHANNELS 6 Xposition Yposition Zposition Xrotation Yrotation Zrotation
														End Site
														{
															OFFSET 0.583630 2.263832 0.208616
														}
													}
												}
											}
										}
										JOINT r_carpometacarpal_5
										{
											OFFSET -1.165796 -3.435104 -3.783372
											CHANNELS 6 Xposition Yposition Zposition Xrotation Yrotation Zrotation
											JOINT r_metacarpophalangeal_5
											{
												OFFSET -1.990616 -5.060738 -1.206017
												CHANNELS 6 Xposition Yposition Zposition Xrotation Yrotation Zrotation
												JOINT r_carpal_proximal_interphalangeal_5
												{
													OFFSET -0.478424 -1.869835 -0.540503
													CHANNELS 6 Xposition Yposition Zposition Xrotation Yrotation Zrotation
													JOINT r_carpal_distal_interphalangeal_5
													{
														OFFSET -0.603939 -2.091087 -0.642461
														CHANNELS 6 Xposition Yposition Zposition Xrotation Yrotation Zrotation
														End Site
														{
															OFFSET 0.646667 2.167053 0.189385
														}
													}
												}
											}
										}
									}
								}
							}
						}
					}
				}
			}
		}
	}
}
MOTION
Frames: 3
Frame Time: 0.040000
0.000000 97.241226 -0.000000 0.000018 0.000000 -0.000284 12.659443 0.263420 0.017504 0.000001 -0.000003 0.000000 -0.056125 -41.459221 -7.092514 -0.000036 0.000010 -0.000032 -0.451250 -48.935463 -0.909034 0.000002 -0.000000 0.000000 1.893438 -2.741841 10.253987 0.000017 -0.000007 -0.000003 1.459260 -1.239550 6.720150 0.000003 -0.000009 -0.000006 -10.877522 0.542420 0.118805 -0.000002 0.000011 -0.000003 -2.733020 -40.102699 -3.116478 -0.000001 -0.000008 0.000003 -2.072453 -48.341614 -2.002306 0.000003 0.000003 0.000002 -1.708608 -5.120190 8.172797 -0.000009 0.000000 -0.000002 -1.297714 -1.254817 10.832579 -0.000003 0.000008 0.000000 0.133384 107.967484 -0.574448 -0.000001 0.000011 -0.000002 0.004483 8.902283 -0.497653 0.000018 0.000032 -0.000005 0.060136 8.839608 -0.493494 0.000026 0.000005 0.000014 0.062682 8.848529 -0.076898 0.000095 -0.000045 0.000082 -0.096809 9.138901 -1.197565 0.000003 0.000002 0.000005 -0.124959 11.439819 -2.813918 -0.000000 0.000003 0.000000 -0.218966 6.882385 0.230860 -0.000004 -0.000032 0.000016 0.006267 20.116831 1.298746 -0.000072 0.000122 0.000103 9.002879 2.183441 -2.357398 0.000000 0.000001 0.000001 16.979574 -1.196672 0.059306 0.000020 -0.000025 0.000027 1.919567 -24.215712 -2.683200 0.000006 0.000016 0.000029 4.005365 -23.866190 1.746332 0.000005 -0.000002 0.000006 -0.733296 -0.937844 2.556460 0.000009 0.000005 -0.000001 -1.623570 -2.654387 1.342733 0.000006 -0.000006 0.000006 -0.159114 -3.764387 0.795189 -0.000040 -0.000012 0.000018 0.220425 -1.855500 1.852469 -0.000003 0.000002 -0.000000 1.868758 -5.691115 0.608624 0.000001 0.000003 0.000001 0.668041 -4.187939 -0.509608 -0.000003 -0.000003 -0.000010 0.351725 -2.856320 -0.355147 0.000002 0.000007 -0.000004 0.736207 -1.450032 0.605911 0.000008 0.000009 0.000004 2.204279 -6.889062 -0.754779 0.000005 -0.000002 0.000001 1.305157 -4.174077 -0.457856 0.000072 -0.000013 0.000050 0.286175 -2.824469 -0.467300 -0.000001 0.000000 -0.000000 1.540034 -1.242718 -1.132462 -0.000009 -0.000003 -0.000004 1.957337 -5.316864 -1.147082 -0.000003 0.000000 -0.000000 0.823355 -4.700466 -0.979107 0.000019 0.000027 -0.000009 0.270655 -2.404504 -0.276403 0.000022 0.000004 -0.000021 0.804027 -1.054971 -2.769534 0.000003 -0.000002 0.000000 2.351753 -5.248128 -1.593387 -0.000003 0.000000 0.000007 0.930413 -3.007706 -0.994928 -0.000027 -0.000029 0.000058 0.348502 -1.584795 -0.524660 0.000026 -0.000006 0.000012 -9.619548 2.826994 -1.720043 0.000005 0.000007 0.000012 -15.998904 0.170963 0.277145 0.000041 -0.000020 -0.000002 -1.066517 -23.014376 -3.981278 -0.000001 -0.000001 0.000000 -5.432979 -24.873869 2.860107 -0.000002 0.000006 -0.000003 0.888862 -2.774315 2.314271 0.000004 -0.000002 -0.000000 1.017184 -3.196987 0.869552 0.000033 0.000030 -0.000021 0.265914 -4.102311 0.853480 -0.000001 -0.000023 0.000015 -0.338844 -2.827665 1.960047 0.000001 0.000004 0.000001 -2.232977 -7.694680 -0.184950 -0.000003 -0.000008 -0.000001 -0.882919 -3.742081 -0.434771 0.000004 0.000017 -0.000003 -0.144015 -2.358279 -0.330726 -0.000007 -0.000005 -0.000003 -0.987763 -2.061354 0.636621 0.000002 0.000006 -0.000001 -2.321778 -7.881209 -1.327347 0.000004 0.000003 0.000003 -0.970016 -4.269559 -0.713565 -0.000005 -0.000006 -0.000005 -0.698531 -2.891979 -0.524224 0.000004 0.000005 0.000007 -1.338698 -2.244173 -0.938707 0.000000 0.000002 0.000000 -2.024861 -6.788980 -1.596691 0.000043 -0.000020 0.000090 -1.144619 -4.162174 -1.217983 -0.000006 0.000003 0.000008 -0.718683 -2.192030 -0.433137 0.000008 0.000000 -0.000028 -1.165793 -3.435090 -3.783377 0.000004 0.000005 -0.000000 -1.990608 -5.060749 -1.206025 -0.000010 0.000003 -0.000003 -0.478430 -1.869819 -0.540501 0.000003 0.000001 0.000001 -0.603927 -2.091094 -0.642462 -0.000013 0.000008 -0.000009 
-0.000000 97.241234 0.000000 -2.825679 0.037281 0.000935 12.659442 0.263420 0.017504 0.000001 -0.000003 0.000000 -0.056125 -41.459225 -7.092514 5.420850 -0.330573 0.196437 -0.451250 -48.935471 -0.909033 -1.688586 -0.184532 0.430312 1.893437 -2.741840 10.253987 0.000016 -0.000008 -0.000004 1.459258 -1.239551 6.720148 0.000002 -0.000010 -0.000005 -10.877522 0.542428 0.118805 -0.000002 0.000011 -0.000003 -2.733019 -40.102692 -3.116479 4.992253 -0.035465 0.264349 -2.072454 -48.341614 -2.002306 -1.418213 -0.519623 1.203185 -1.708605 -5.120189 8.172796 -0.000006 0.000002 -0.000003 -1.297711 -1.254818 10.832581 -0.000003 0.000008 0.000000 0.133384 107.967484 -0.574448 0.211187 -0.012602 -0.049956 0.004483 8.902275 -0.497653 0.000018 0.000031 -0.000005 0.060137 8.839582 -0.493494 0.974050 -0.011220 -0.089498 0.062682 8.848556 -0.076897 1.080357 -0.039720 -0.111960 -0.096808 9.138916 -1.197562 0.000001 0.000002 0.000005 -0.124958 11.439809 -2.813919 -0.648408 -0.061492 -0.033287 -0.218967 6.882420 0.230860 -0.328201 -0.005921 0.033569 0.006267 20.116846 1.298746 -0.000072 0.000122 0.000103 9.002878 2.183415 -2.357400 0.004591 -2.463847 -0.638525 16.979578 -1.196684 0.059307 -1.855899 -0.004090 1.570322 1.919566 -24.215717 -2.683200 -1.709984 -3.276821 0.345070 4.005367 -23.866213 1.746335 0.000005 0.000003 0.000007 -0.733293 -0.937868 2.556457 0.000004 0.000004 -0.000005 -1.623569 -2.654401 1.342734 0.000011 -0.000008 0.000004 -0.159113 -3.764381 0.795190 -0.000042 -0.000011 0.000017 0.220427 -1.855531 1.852464 -0.000003 -0.000002 -0.000001 1.868750 -5.691091 0.608626 0.116651 0.136788 -0.627012 0.668041 -4.187938 -0.509609 1.438822 0.517915 -3.250919 0.351723 -2.856310 -0.355142 0.000002 -0.000001 -0.000003 0.736213 -1.450062 0.605906 0.000006 0.000006 0.000003 2.204282 -6.889069 -0.754781 0.800229 0.203699 -1.775054 1.305159 -4.174072 -0.457857 1.445268 0.532674 -3.125068 0.286186 -2.824477 -0.467301 0.000003 -0.000001 -0.000000 1.540029 -1.242734 -1.132465 -0.000010 -0.000007 -0.000005 1.957350 -5.316849 -1.147083 -0.019022 0.325502 -0.002011 0.823354 -4.700476 -0.979103 0.985437 0.256703 -3.780056 0.270656 -2.404512 -0.276404 0.000023 0.000007 -0.000022 0.804027 -1.054980 -2.769539 -0.000000 -0.000005 -0.000001 2.351755 -5.248114 -1.593391 0.670692 -0.161784 -2.185565 0.930405 -3.007710 -0.994925 0.806860 0.033481 -2.250858 0.348501 -1.584788 -0.524663 0.000024 -0.000008 0.000013 -9.619548 2.826965 -1.720045 -0.034158 2.715436 -0.091296 -15.998903 0.170946 0.277149 -3.015837 -1.360015 0.092808 -1.066515 -23.014349 -3.981276 -2.750439 0.599156 0.263502 -5.432977 -24.873899 2.860106 0.000004 0.000004 -0.000003 0.888869 -2.774299 2.314279 0.000004 -0.000004 -0.000003 1.017183 -3.196997 0.869547 -0.004570 1.822011 -0.712561 0.265912 -4.102329 0.853483 -0.121980 1.698343 -0.715726 -0.338835 -2.827657 1.960058 0.000004 0.000005 0.000002 -2.232974 -7.694676 -0.184947 0.641191 -0.231476 1.950649 -0.882934 -3.742085 -0.434772 1.114525 -0.352133 1.705956 -0.144014 -2.358286 -0.330715 -0.000006 -0.000005 -0.000006 -0.987753 -2.061346 0.636632 0.000003 0.000008 -0.000003 -2.321778 -7.881212 -1.327347 -0.159357 -0.498027 0.559434 -0.970021 -4.269563 -0.713564 0.250103 -0.148262 1.129398 -0.698531 -2.891988 -0.524223 0.000004 0.000004 0.000007 -1.338686 -2.244156 -0.938695 0.000003 0.000006 -0.000000 -2.024841 -6.788981 -1.596694 0.313081 -0.065564 1.039025 -1.144611 -4.162196 -1.217982 -0.000003 0.000003 0.000007 -0.718684 -2.192030 -0.433136 0.000010 0.000001 -0.000022 -1.165791 -3.435096 -3.783365 0.000005 0.000008 -0.000002 -1.990611 -5.060753 -1.206022 0.386786 -0.701542 1.667424 -0.478430 -1.869829 -0.540501 0.335442 -0.351650 1.093418 -0.603927 -2.091087 -0.642470 -0.000014 0.000007 -0.000011 
-0.000000 97.241241 0.000000 -8.460046 0.111253 0.008307 12.659442 0.263428 0.017504 0.000001 -0.000003 0.000000 -0.056128 -41.459236 -7.092514 16.235314 -0.927214 0.676784 -0.451248 -48.935459 -0.909034 -5.048656 -0.589457 1.291385 1.893435 -2.741840 10.253986 0.000016 -0.000008 -0.000003 1.459258 -1.239551 6.720149 0.000001 -0.000010 -0.000006 -10.877522 0.542428 0.118806 -0.000001 0.000011 -0.000003 -2.733019 -40.102688 -3.116479 14.947799 -0.037064 0.795743 -2.072455 -48.341614 -2.002306 -4.198607 -1.572948 3.611782 -1.708607 -5.120193 8.172797 -0.000007 0.000002 -0.000002 -1.297714 -1.254817 10.832581 -0.000004 0.000008 0.000000 0.133384 107.967484 -0.574448 0.632242 -0.038212 -0.149443 0.004485 8.902283 -0.497653 0.000019 0.000031 -0.000006 0.060136 8.839577 -0.493493 2.916188 -0.038126 -0.267319 0.062682 8.848525 -0.076896 3.234314 -0.125239 -0.332747 -0.096809 9.138931 -1.197565 0.000002 0.000003 0.000005 -0.124953 11.439833 -2.813919 -1.941409 -0.182972 -0.101734 -0.218967 6.882384 0.230859 -0.994088 -0.018544 0.101584 0.006267 20.116861 1.298749 -0.000073 0.000122 0.000103 9.002882 2.183431 -2.357400 -0.164838 -7.376334 -1.898436 16.979572 -1.196661 0.059303 -5.597142 -0.303115 4.701192 1.919569 -24.215721 -2.683199 -5.160305 -9.828909 0.420844 4.005358 -23.866182 1.746331 0.000005 0.000002 0.000005 -0.733294 -0.937844 2.556467 0.000008 0.000003 -0.000003 -1.623570 -2.654408 1.342745 0.000012 -0.000009 0.000009 -0.159097 -3.764375 0.795178 -0.000043 -0.000018 0.000015 0.220420 -1.855508 1.852474 -0.000003 -0.000006 -0.000002 1.868757 -5.691080 0.608632 0.353692 0.405654 -1.878121 0.668039 -4.187951 -0.509615 4.384562 1.302452 -9.768365 0.351724 -2.856312 -0.355149 0.000003 0.000003 -0.000001 0.736207 -1.450040 0.605915 0.000009 0.000006 0.000004 2.204283 -6.889050 -0.754780 2.412855 0.535346 -5.322215 1.305169 -4.174085 -0.457861 4.403939 1.355127 -9.393066 0.286172 -2.824477 -0.467304 -0.000001 0.000004 0.000004 1.540035 -1.242718 -1.132456 -0.000006 -0.000009 -0.000004 1.957350 -5.316844 -1.147082 -0.056964 0.974552 -0.005689 0.823356 -4.700461 -0.979102 2.990401 0.572045 -11.328480 0.270659 -2.404506 -0.276404 0.000021 0.000006 -0.000021 0.804023 -1.054956 -2.769529 0.000004 -0.000003 0.000000 2.351751 -5.248109 -1.593392 2.009237 -0.565158 -6.530021 0.930417 -3.007694 -0.994928 2.416676 0.005708 -6.739528 0.348505 -1.584804 -0.524665 0.000026 -0.000011 0.000011 -9.619542 2.826963 -1.720045 -0.089735 8.130173 -0.269794 -15.998901 0.170943 0.277151 -9.056879 -4.034457 -0.120555 -1.066519 -23.014355 -3.981278 -8.244775 1.752710 0.873389 -5.432973 -24.873854 2.860103 -0.000000 0.000004 -0.000003 0.888864 -2.774323 2.314281 0.000001 -0.000004 -0.000003 1.017188 -3.196977 0.869551 0.054225 5.454557 -2.137649 0.265910 -4.102319 0.853487 -0.302296 5.088702 -2.136127 -0.338840 -2.827666 1.960054 0.000003 0.000002 0.000001 -2.232983 -7.694676 -0.184948 1.941424 -0.627185 5.847519 -0.882933 -3.742079 -0.434771 3.365918 -0.954191 5.126794 -0.144018 -2.358280 -0.330722 -0.000009 -0.000005 -0.000001 -0.987759 -2.061362 0.636627 0.000002 0.000005 -0.000004 -2.321780 -7.881208 -1.327347 -0.476233 -1.490662 1.694833 -0.970016 -4.269564 -0.713565 0.765945 -0.433572 3.421326 -0.698531 -2.892009 -0.524221 0.000005 0.000006 0.000004 -1.338693 -2.244173 -0.938701 0.000001 0.000002 -0.000000 -2.024854 -6.788970 -1.596691 0.940542 -0.179238 3.111751 -1.144612 -4.162189 -1.217982 -0.000004 0.000003 0.000005 -0.718680 -2.192047 -0.433138 0.000010 -0.000000 -0.000022 -1.165794 -3.435089 -3.783368 0.000006 0.000003 -0.000002 -1.990617 -5.060752 -1.206025 1.218519 -2.065247 5.007734 -0.478425 -1.869854 -0.540502 1.024101 -1.033373 3.279948 -0.603933 -2.091095 -0.642465 -0.000014 0.000007 -0.000012 
